Coordinates
version=1
nRows=10
nColumns=38
inDegrees=no

Units are S.I. units (second, meters, Newtons, ...)
If the header above contains a line with 'inDegrees', this indicates whether rotational values are in degrees (yes) or radians (no).

endheader
time	pelvis_tilt	pelvis_list	pelvis_rotation	pelvis_tx	pelvis_ty	pelvis_tz	hip_flexion_r	hip_adduction_r	hip_rotation_r	knee_angle_r	ankle_angle_r	subtalar_angle_r	mtp_angle_r	hip_flexion_l	hip_adduction_l	hip_rotation_l	knee_angle_l	ankle_angle_l	subtalar_angle_l	mtp_angle_l	lumbar_extension	lumbar_bending	lumbar_rotation	arm_flex_r	arm_add_r	arm_rot_r	elbow_flex_r	pro_sup_r	wrist_flex_r	wrist_dev_r	arm_flex_l	arm_add_l	arm_rot_l	elbow_flex_l	pro_sup_l	wrist_flex_l	wrist_dev_l
0.233333	0.160834	-0.0130815	0.0174411	0.501467	1.02084	-0.320738	0.211475	0.0797924	-0.0562515	-0.396867	0.104727	-0.031798	-0.00405963	-0.248381	-0.00574228	-0.0354496	-0.782643	-0.126545	-0.0719804	0.00213752	-0.426959	0.0146558	-0.237364	-0.364662	-0.464684	0.0696055	1.99312	1.3401	-0.0266009	-0.00463286	-0.371786	-0.456711	0.0499967	2.23477	1.69151	0.0491703	-0.0193245
0.241667	0.168767	-0.0114746	0.0135561	0.501182	1.01627	-0.320347	0.211043	0.084286	-0.0476896	-0.435459	0.105532	-0.031798	-0.00405963	-0.229924	-0.00560638	-0.0366338	-0.860741	-0.103992	-0.0719804	0.00213752	-0.434996	0.0134454	-0.228391	-0.359604	-0.469045	0.0535425	1.99934	1.33415	-0.0266009	-0.00463286	-0.38396	-0.453772	0.0516718	2.23677	1.68156	0.0491703	-0.0193245
0.25	0.176711	-0.0110684	0.00873951	0.500558	1.01113	-0.319956	0.211866	0.0898292	-0.0383837	-0.479013	0.114752	-0.031798	-0.00405963	-0.209721	-0.00654306	-0.0386521	-0.938112	-0.082459	-0.0719804	0.00213752	-0.444059	0.0132626	-0.216797	-0.35246	-0.473872	0.0383786	2.00379	1.32907	-0.0266009	-0.00463286	-0.394223	-0.44983	0.0525595	2.23583	1.67299	0.0491703	-0.0193245
0.258333	0.184633	-0.0118448	0.00300807	0.499587	1.00553	-0.319583	0.213878	0.096385	-0.0283924	-0.527251	0.132117	-0.031798	-0.00405963	-0.187746	-0.00849809	-0.0414159	-1.01468	-0.0619881	-0.0719804	0.00213752	-0.4541	0.0140976	-0.202615	-0.343221	-0.479158	0.0241414	2.00645	1.32488	-0.0266009	-0.00463286	-0.402579	-0.444865	0.0526673	2.23192	1.66585	0.0491703	-0.0193245
0.266667	0.192447	-0.0137556	-0.00358679	0.498284	0.999702	-0.319251	0.216858	0.103845	-0.0178751	-0.579325	0.156793	-0.031798	-0.00405963	-0.163941	-0.0113054	-0.0446565	-1.09023	-0.0426503	-0.0719804	0.00213752	-0.464968	0.0159237	-0.185952	-0.331869	-0.484873	0.0109166	2.00719	1.32165	-0.0266009	-0.00463286	-0.409055	-0.438818	0.0520224	2.22489	1.66023	0.0491703	-0.0193245
0.275	0.200028	-0.0167237	-0.0109329	0.496695	0.99384	-0.318983	0.220336	0.112029	-0.00708439	-0.633665	0.187267	-0.031798	-0.00405963	-0.138261	-0.0146668	-0.047898	-1.16426	-0.0244925	-0.0719804	0.00213752	-0.476397	0.0186962	-0.167012	-0.318389	-0.490963	-0.00112784	2.00586	1.31946	-0.0266009	-0.00463286	-0.413731	-0.431581	0.0506765	2.21456	1.65629	0.0491703	-0.0193245
0.283333	0.20717	-0.0206433	-0.0188706	0.494891	0.988112	-0.318803	0.223579	0.120718	0.0036979	-0.688095	0.221505	-0.031798	-0.00405963	-0.110726	-0.0181988	-0.0505175	-1.23608	-0.00746857	-0.0719804	0.00213752	-0.488037	0.0223586	-0.1461	-0.302792	-0.497327	-0.0117404	2.00225	1.31839	-0.0266009	-0.00463286	-0.416769	-0.423021	0.0486991	2.20073	1.65429	0.0491703	-0.0193245
0.291667	0.213661	-0.0253929	-0.027212	0.492939	0.982631	-0.318729	0.225684	0.129687	0.0142448	-0.740134	0.257313	-0.031798	-0.00405963	-0.0814443	-0.0215033	-0.0518746	-1.30474	0.00857836	-0.0719804	0.00213752	-0.499471	0.0268167	-0.123599	-0.285157	-0.503804	-0.0206119	1.99625	1.31843	-0.0266009	-0.00463286	-0.418444	-0.413036	0.0461572	2.18335	1.65446	0.0491703	-0.0193245
0.3	0.219312	-0.0308207	-0.0357693	0.490893	0.977485	-0.318762	0.225726	0.138716	0.0244433	-0.787395	0.292721	-0.031798	-0.00405963	-0.050617	-0.0242351	-0.0514485	-1.36921	0.0238735	-0.0719804	0.00213752	-0.510272	0.0319008	-0.0999364	-0.265669	-0.510154	-0.0274334	1.98793	1.31951	-0.0266009	-0.00463286	-0.41914	-0.401622	0.0430925	2.16262	1.65697	0.0491703	-0.0193245
0.308333	0.223938	-0.0366947	-0.0443767	0.488802	0.97276	-0.318884	0.222927	0.147575	0.0342973	-0.827965	0.326232	-0.031798	-0.00405963	-0.0185132	-0.0261296	-0.0489251	-1.42849	0.0386314	-0.0719804	0.00213752	-0.520063	0.0373343	-0.075554	-0.244655	-0.51605	-0.0319789	1.9776	1.3215	-0.0266009	-0.00463286	-0.419326	-0.388946	0.0395148	2.13917	1.66174	0.0491703	-0.0193245
